<svg xmlns="http://www.w3.org/2000/svg" viewBox="0 0 256 256" width="100%" height="100%">
  <circle cx="128" cy="128" r="128" fill="#25D366"/>
  <path fill="#FFFFFF" d="M191.5 64.5C174.7 47.7 152.4 38.4 128.6 38.4 79.5 38.4 39.6 78.3 39.6 127.4c0 15.7 4.1 31 11.9 44.5L38 218l47.2-12.4c13 7.1 27.6 10.9 42.4 10.9h.1c49.1 0 89-39.9 89-89 0-23.8-9.3-46.1-25.2-63zM128.6 201.6h-.1c-13.3 0-26.3-3.6-37.7-10.3l-2.7-1.6-28 7.3 7.5-27.3-1.8-2.8c-7.4-11.8-11.3-25.4-11.3-39.5 0-40.8 33.2-74 74-74 19.8 0 38.3 7.7 52.3 21.7 14 14 21.7 32.6 21.7 52.3 0 40.8-33.2 74.2-74 74.2zm40.6-55.5c-2.2-1.1-13.2-6.5-15.3-7.3-2.1-.8-3.6-1.1-5.1 1.1-1.5 2.2-5.8 7.3-7.2 8.8-1.4 1.5-2.7 1.7-4.9.6-2.2-1.1-9.3-3.4-17.7-10.9-6.5-5.8-11-13-12.2-15.2-1.3-2.2-.1-3.4 1-4.5 1-.1 2.2-1.3 3.3-2.5 1.1-1.2 1.5-2.1 2.2-3.5.7-1.4.4-2.7-.2-3.8-.6-1.1-5.1-12.3-7-16.8-1.9-4.4-3.8-3.8-5.1-3.9-1.3-.1-2.7-.1-4.1-.1s-3.8.5-5.8 2.7c-2 2.2-7.7 7.5-7.7 18.3 0 10.8 7.9 21.3 9 22.8 1.1 1.5 15.5 23.7 37.6 33.2 5.2 2.3 9.3 3.6 12.5 4.7 5.3 1.7 10.1 1.5 13.9 0.9 4.3-.6 13.2-5.4 15.1-10.6 1.9-5.2 1.9-9.7 1.3-10.6-.5-.9-2.1-1.5-4.3-2.6z"/>
</svg>
